<svg width="241" height="240" viewBox="0 0 241 240" fill="none" xmlns="http://www.w3.org/2000/svg">
<path d="M0 8.1553C0 3.65126 3.65125 0 8.1553 0H62.4329C66.937 0 70.5882 3.65125 70.5882 8.1553V231.845C70.5882 236.349 66.937 240 62.4329 240H8.15529C3.65125 240 0 236.349 0 231.845V120V8.1553Z" fill="#3D6EFF"/>
<path d="M84.7049 8.15528C84.7049 3.65124 88.3561 0 92.8602 0H147.138C151.642 0 155.293 3.65125 155.293 8.1553V147.139C155.293 151.643 151.642 155.294 147.138 155.294H92.8602C88.3561 155.294 84.7049 151.643 84.7049 147.139V8.15528Z" fill="#3D6EFF" fill-opacity="0.85"/>
<path d="M169.414 8.15529C169.414 3.65125 173.066 0 177.57 0H231.847C236.351 0 240.003 3.65125 240.003 8.1553V62.4329C240.003 66.937 236.351 70.5882 231.847 70.5882H177.57C173.066 70.5882 169.414 66.937 169.414 62.4329V8.15529Z" fill="#3D6EFF" fill-opacity="0.65"/>
</svg>
