<svg width="100" height="100" viewBox="0 0 100 100" fill="none" xmlns="http://www.w3.org/2000/svg">
<path d="M0 3.39804C0 1.52136 1.52135 0 3.39804 0H26.0137C27.8904 0 29.4118 1.52135 29.4118 3.39804V96.602C29.4118 98.4786 27.8904 100 26.0137 100H3.39804C1.52135 100 0 98.4786 0 96.602V50V3.39804Z" fill="#3D6EFF"/>
<path d="M35.2937 3.39804C35.2937 1.52135 36.8151 0 38.6917 0H61.3074C63.1841 0 64.7055 1.52135 64.7055 3.39804V61.3078C64.7055 63.1845 63.1841 64.7059 61.3074 64.7059H38.6917C36.8151 64.7059 35.2937 63.1845 35.2937 61.3078V3.39804Z" fill="#3D6EFF" fill-opacity="0.85"/>
<path d="M70.5893 3.39804C70.5893 1.52135 72.1106 0 73.9873 0H96.603C98.4797 0 100.001 1.52135 100.001 3.39804V26.0137C100.001 27.8904 98.4797 29.4118 96.603 29.4118H73.9873C72.1106 29.4118 70.5893 27.8904 70.5893 26.0137V3.39804Z" fill="#3D6EFF" fill-opacity="0.65"/>
</svg>
